<svg xmlns="http://www.w3.org/2000/svg" width="64" height="64" viewBox="0 0 64 64" fill="none">
  <defs>
    <linearGradient id="logoGradient" x1="0%" y1="0%" x2="100%" y2="100%">
      <stop offset="0%" style="stop-color:#0DF;stop-opacity:1" />
      <stop offset="100%" style="stop-color:#E1EA2D;stop-opacity:1" />
    </linearGradient>
  </defs>
  
  <!-- Camadas representando as camadas de rede -->
  <rect x="8" y="12" width="48" height="8" rx="2" fill="url(#logoGradient)" opacity="0.9"/>
  <rect x="6" y="22" width="52" height="8" rx="2" fill="url(#logoGradient)" opacity="0.7"/>
  <rect x="4" y="32" width="56" height="8" rx="2" fill="url(#logoGradient)" opacity="0.5"/>
  <rect x="6" y="42" width="52" height="8" rx="2" fill="url(#logoGradient)" opacity="0.7"/>
  <rect x="8" y="52" width="48" height="8" rx="2" fill="url(#logoGradient)" opacity="0.9"/>
  
  <!-- Conexões entre camadas -->
  <circle cx="16" cy="16" r="2" fill="#E1EA2D"/>
  <circle cx="32" cy="26" r="2" fill="#E1EA2D"/>
  <circle cx="48" cy="36" r="2" fill="#E1EA2D"/>
  <circle cx="32" cy="46" r="2" fill="#E1EA2D"/>
  <circle cx="16" cy="56" r="2" fill="#E1EA2D"/>
  
  <!-- Linhas de conexão -->
  <path d="M16 18 L32 24" stroke="#0DF" stroke-width="2" opacity="0.6"/>
  <path d="M32 28 L48 34" stroke="#0DF" stroke-width="2" opacity="0.6"/>
  <path d="M48 38 L32 44" stroke="#0DF" stroke-width="2" opacity="0.6"/>
  <path d="M32 48 L16 54" stroke="#0DF" stroke-width="2" opacity="0.6"/>
</svg>
