<svg width="120" height="120" viewBox="0 0 120 120" fill="none" xmlns="http://www.w3.org/2000/svg">
<path d="M19.9572 54.7739L19.9783 64.6944L79.5017 64.568L79.5228 74.4886L89.4434 74.4675L89.4223 64.5469L99.3428 64.5258L99.3218 54.6053L89.4012 54.6263L89.3801 44.7058L79.4596 44.7269L79.4806 54.6474L19.9572 54.7739ZM69.5179 34.8274L79.4385 34.8063L79.4596 44.7269L69.539 44.7479L69.5179 34.8274ZM69.5179 34.8274L59.5974 34.8484L59.5763 24.9279L69.4968 24.9068L69.5179 34.8274ZM69.6233 84.4302L79.5439 84.4091L79.5228 74.4886L69.6022 74.5096L69.6233 84.4302ZM69.6233 84.4302L59.7027 84.4513L59.7238 94.3718L69.6444 94.3508L69.6233 84.4302Z" fill="#E1EA2D"/>
</svg>
