<svg width="83" height="83" viewBox="0 0 83 83" fill="none" xmlns="http://www.w3.org/2000/svg">
<g clip-path="url(#clip0_6_94)">
<path d="M82.9999 24.2083C82.9954 23.3621 82.7853 22.5296 82.3877 21.7826C81.9901 21.0356 81.4169 20.3964 80.7174 19.92L56.5091 3.45833C55.6583 2.87696 54.6519 2.56593 53.6214 2.56593C52.5909 2.56593 51.5845 2.87696 50.7337 3.45833L30.5024 18.3637C30.201 18.583 29.8377 18.7012 29.4649 18.7012C29.0921 18.7012 28.7289 18.583 28.4274 18.3637L8.26536 3.45833C7.48276 2.88086 6.55359 2.53503 5.58387 2.46031C4.61416 2.38558 3.64297 2.58497 2.78114 3.03572C1.91931 3.48646 1.20156 4.17041 0.709786 5.00951C0.218017 5.84861 -0.0279564 6.80906 -6.27975e-05 7.78125V58.7917C0.00445042 59.6379 0.214557 60.4704 0.612169 61.2174C1.00978 61.9644 1.58299 62.6036 2.28244 63.08L26.4908 79.5417C27.3416 80.123 28.348 80.4341 29.3785 80.4341C30.4089 80.4341 31.4154 80.123 32.2662 79.5417L52.4283 64.7054C52.7298 64.4861 53.093 64.368 53.4658 64.368C53.8386 64.368 54.2018 64.4861 54.5033 64.7054L74.7345 79.5417C75.6326 80.1852 76.7076 80.5355 77.8124 80.5446C78.495 80.5492 79.1716 80.4181 79.803 80.1591C80.4345 79.9 81.0082 79.5181 81.4908 79.0354C81.9734 78.5528 82.3554 77.9791 82.6144 77.3477C82.8735 76.7162 83.0045 76.0396 82.9999 75.3571V24.2083ZM32.8541 26.0412C32.8485 25.7718 32.9085 25.5051 33.029 25.2641C33.1495 25.0231 33.3269 24.815 33.5458 24.6579L48.7624 13.28C48.8979 13.1975 49.0534 13.1539 49.212 13.1539C49.3706 13.1539 49.5261 13.1975 49.6616 13.28C49.778 13.331 49.8818 13.407 49.9654 13.5026C50.0491 13.5983 50.1107 13.7112 50.1458 13.8333V56.9587C50.1514 57.2281 50.0914 57.4949 49.9709 57.7359C49.8504 57.9769 49.673 58.185 49.4541 58.3421L34.2374 69.72C34.102 69.8025 33.9464 69.8461 33.7879 69.8461C33.6293 69.8461 33.4737 69.8025 33.3383 69.72C33.2219 69.669 33.1181 69.593 33.0344 69.4974C32.9508 69.4017 32.8892 69.2888 32.8541 69.1667V26.0412ZM6.9166 12.8996C6.91299 12.7346 6.95666 12.5721 7.04246 12.4311C7.12825 12.2902 7.25258 12.1767 7.40077 12.1042C7.53623 12.0217 7.69177 11.9781 7.85035 11.9781C8.00894 11.9781 8.16448 12.0217 8.29994 12.1042L25.2458 24.5887C25.4586 24.7516 25.6315 24.9609 25.7513 25.2006C25.8712 25.4403 25.9348 25.7041 25.9374 25.9721V69.1667C25.9379 69.3222 25.8963 69.475 25.8172 69.6089C25.7381 69.7428 25.6243 69.8528 25.4879 69.9275C25.3501 70.0032 25.1955 70.0429 25.0383 70.0429C24.8811 70.0429 24.7265 70.0032 24.5887 69.9275L7.67744 58.3421C7.44304 58.1873 7.25079 57.9767 7.11798 57.7292C6.98518 57.4817 6.91598 57.205 6.9166 56.9242V12.8996ZM76.0833 70.1004C76.0869 70.2654 76.0432 70.4279 75.9574 70.5689C75.8716 70.7098 75.7473 70.8233 75.5991 70.8958C75.4637 70.9783 75.3081 71.0219 75.1495 71.0219C74.9909 71.0219 74.8354 70.9783 74.6999 70.8958L57.7541 58.515C57.5413 58.3521 57.3684 58.1429 57.2486 57.9032C57.1287 57.6635 57.0651 57.3996 57.0624 57.1317V13.8333C57.062 13.6778 57.1036 13.525 57.1827 13.3911C57.2618 13.2572 57.3756 13.1472 57.512 13.0725C57.6498 12.9968 57.8044 12.9571 57.9616 12.9571C58.1188 12.9571 58.2734 12.9968 58.4112 13.0725L75.3224 24.5887C75.5568 24.7435 75.7491 24.9541 75.8819 25.2016C76.0147 25.4491 76.0839 25.7258 76.0833 26.0067V70.1004Z" fill="#E1EA2D"/>
</g>
<defs>
<clipPath id="clip0_6_94">
<rect width="83" height="83" fill="white"/>
</clipPath>
</defs>
</svg>
